<?xml version="1.0" encoding="utf-8"?>
<!-- Generator: Adobe Illustrator 15.1.0, SVG Export Plug-In . SVG Version: 6.00 Build 0)  -->
<!DOCTYPE svg PUBLIC "-//W3C//DTD SVG 1.1//EN" "http://www.w3.org/Graphics/SVG/1.1/DTD/svg11.dtd">
<svg version="1.1" id="Layer_1" xmlns="http://www.w3.org/2000/svg" xmlns:xlink="http://www.w3.org/1999/xlink" x="0px" y="0px"
	 width="595.275px" height="595.275px" viewBox="0 0 595.275 595.275" enable-background="new 0 0 595.275 595.275"
	 xml:space="preserve">
<path d="M220.1,250.965l27.921,27.118h14.914l-32.818-31.844l26.373-28.678h-13.624l-22.766,24.75v-24.75h-10.728v60.522H220.1
	V250.965z M301.443,268.21h-25.409v-15.707h23.79v-9.873h-23.79v-15.198h24.642v-9.871h-35.368v60.522h36.134V268.21z
	 M344.078,268.211h-25.41v-15.709l23.791,0.002v-9.873h-23.791v-15.198h24.642v-9.873h-35.366v60.523h36.135V268.211z
	 M343.056,349.927h-26.264l0.002-50.649h-10.728v60.521h36.989V349.927z M360.878,252.927l7.513,0.002
	c6.936,0.002,12.162-1.851,15.655-5.03c3.493-3.178,5.147-7.621,5.141-12.44c0.002-4.846-1.538-9.366-4.837-12.649
	c-3.295-3.291-8.273-5.254-14.851-5.249h-19.348v60.523h10.727V252.927z M360.878,227.433h8.621c3.566,0.012,5.64,1.052,6.913,2.445
	c1.271,1.401,1.792,3.311,1.792,5.24c-0.087,5.164-3.223,7.822-9.047,7.94h-8.279V227.433z M358.489,316.518l16.318,20.516h2.508
	l16.321-20.516v43.283h10.729v-60.521h-9.512l-18.791,23.176l-18.706-23.176h-9.595v60.521h10.727V316.518z M268.269,298.936
	l-25.995,60.866h11.103l7.331-17.141h23.184l7.76,17.141h11.115l-27.062-60.866H268.269z M264.939,332.788l6.968-16.874
	l7.516,16.874H264.939z M241.417,354.983v-12.021l-1.83,1.188c-6.4,4.157-13.361,6.378-19.648,6.375
	c-13.466-0.068-22.295-8.483-22.351-20.901c0.029-12.141,9.279-21.032,22.01-21.07c6.509,0.007,12.39,1.786,19.44,5.892l1.781,1.039
	v-11.801l-0.725-0.305c-8.01-3.359-14.244-4.871-20.412-4.868c-9.527-0.002-17.815,3.345-23.706,9.03
	c-5.896,5.678-9.374,13.685-9.371,22.852c0.007,6.399,2.483,13.892,7.807,19.857c5.316,5.963,13.536,10.327,24.757,10.316h0.062
	c9.276,0,15.744-2.211,21.548-5.251L241.417,354.983z M255.918,405.875h4.721l3.115-7.289h9.852l3.3,7.289h4.723l-11.501-25.871
	h-3.16L255.918,405.875z M271.707,394.393h-6.155l2.961-7.17L271.707,394.393z M302.6,398.448l-16.011-18.299h-3.557v25.723h4.339
	V387.69l15.793,18.182h3.777v-25.723H302.6V398.448z M311.404,380.149v25.723h10.146c8.421-0.014,13.606-6.26,13.622-12.86
	c-0.003-3.032-1.043-6.238-3.285-8.707c-2.24-2.467-5.688-4.157-10.373-4.155H311.404z M330.503,393.012
	c-0.042,2.896-1.668,8.652-9.39,8.665h-5.149v-17.33h4.968C327.632,384.389,330.457,388.267,330.503,393.012z"/>
<g>
	<path d="M250.893,456.969c4.85-2.729,7.304-6.84,7.304-12.248c0-3.187-0.775-6.042-2.304-8.485
		c-1.529-2.442-3.77-4.385-6.661-5.771c-2.857-1.369-6.847-2.063-11.859-2.063h-16.448v61.146h20.993
		c4.652,0,8.597-0.79,11.722-2.347c3.145-1.563,5.572-3.627,7.212-6.133c1.648-2.518,2.484-5.413,2.484-8.606
		c0-4.04-1.375-7.562-4.087-10.47C257.074,459.661,254.271,457.978,250.893,456.969z M245.033,451.445
		c-1.734,1.565-4.783,2.359-9.062,2.359h-4.75v-16.041h6.407c6.712,0,9.975,2.498,9.975,7.637
		C247.603,447.903,246.762,449.881,245.033,451.445z M231.221,463.166h7.044c4.09,0,7.099,0.353,8.942,1.047
		c1.775,0.669,3.157,1.689,4.107,3.034c0.96,1.355,1.427,2.812,1.427,4.45c0,1.568-0.458,3.061-1.36,4.434
		c-0.915,1.392-2.093,2.389-3.6,3.046c-1.536,0.668-4.596,1.007-9.093,1.007h-7.468V463.166z"/>
	<polygon points="280.201,463.463 304.5,463.463 304.5,454.059 280.201,454.059 280.201,437.764 305.35,437.764 305.35,428.4 
		269.905,428.4 269.905,489.461 306.157,489.461 306.157,480.1 280.201,480.1 	"/>
	<polygon points="361.07,428.4 341.896,452.24 322.607,428.4 313.234,428.4 313.234,489.547 323.531,489.547 323.531,445.024 
		340.658,466.311 343.095,466.311 360.005,445.048 360.005,489.547 370.345,489.547 370.345,428.4 	"/>
</g>
<g>
	<rect x="316" y="174.098" fill="#010101" width="49" height="13.902"/>
	<path fill="#010101" d="M300.058,118H273V89h-28v85.984L300.058,175c9.085,0,16.45-7.784,16.45-16.869V134.09
		C316.508,125.004,309.143,118,300.058,118z"/>
</g>
</svg>
