<svg xmlns="http://www.w3.org/2000/svg" width="102" height="84" viewBox="0 0 102 84">
  <g fill="#0A0B09" fill-rule="evenodd">
    <polygon points="0 6.034 23.751 6.034 23.751 .045 0 .045"/>
    <polygon points="0 12.022 5.937 12.022 5.937 6.034 0 6.034"/>
    <polygon points="5.937 12.022 23.751 12.022 23.751 6.034 5.937 6.034"/>
    <polygon points="0 18.012 23.751 18.012 23.751 12.022 0 12.022"/>
    <polygon points="0 24.001 23.751 24.001 23.751 18.012 0 18.012"/>
    <polygon points="0 29.989 5.937 29.989 5.937 24.001 0 24.001"/>
    <polygon points="11.876 29.989 23.751 29.989 23.751 24.001 11.876 24.001"/>
    <polygon points="0 35.979 11.876 35.979 11.876 29.99 0 29.99"/>
    <polygon points="17.813 35.979 23.751 35.979 23.751 29.99 17.813 29.99"/>
    <polygon points="0 41.968 5.937 41.968 5.937 35.979 0 35.979"/>
    <polygon points="11.876 41.968 23.751 41.968 23.751 35.979 11.876 35.979"/>
    <polygon points="0 47.959 23.751 47.959 23.751 41.968 0 41.968"/>
    <polygon points="0 53.947 23.751 53.947 23.751 47.959 0 47.959"/>
    <polygon points="0 59.935 5.937 59.935 5.937 53.947 0 53.947"/>
    <polygon points="5.937 59.935 17.814 59.935 17.814 53.947 5.937 53.947"/>
    <polygon points="11.876 71.914 17.813 71.914 17.813 65.924 11.876 65.924"/>
    <polygon points="17.813 59.935 23.751 59.935 23.751 53.947 17.813 53.947"/>
    <polygon points="0 65.923 17.813 65.923 17.813 59.935 0 59.935"/>
    <polygon points="0 71.914 11.876 71.914 11.876 65.924 0 65.924"/>
    <polygon points="17.813 71.914 23.751 71.914 23.751 59.935 17.813 59.935"/>
    <polygon points="23.751 29.989 47.503 29.989 47.503 24.001 23.751 24.001"/>
    <polygon points="23.751 35.979 35.627 35.979 35.627 29.99 23.751 29.99"/>
    <polygon points="41.565 35.979 47.502 35.979 47.502 29.99 41.565 29.99"/>
    <polygon points="23.751 41.968 47.503 41.968 47.503 35.979 23.751 35.979"/>
    <polygon points="59.929 78.01 71.805 78.01 71.805 72.022 59.929 72.022"/>
    <g transform="translate(59 72)">
      <polygon points="18.742 6.01 24.681 6.01 24.681 .022 18.742 .022"/>
      <polygon points=".929 11.94 24.681 11.94 24.681 6.01 .929 6.01"/>
    </g>
    <polygon points="83.681 78.01 101.494 78.01 101.494 72.022 83.681 72.022"/>
    <polygon points="83.681 83.94 101.494 83.94 101.494 78.01 83.681 78.01"/>
    <polygon points="23.751 47.959 41.565 47.959 41.565 41.968 23.751 41.968"/>
    <polygon points="23.751 53.947 35.627 53.947 35.627 47.959 23.751 47.959"/>
    <polygon points="23.751 59.935 35.627 59.935 35.627 53.947 23.751 53.947"/>
    <polygon points="41.565 59.935 47.502 59.935 47.502 53.947 41.565 53.947"/>
    <polygon points="29.69 65.923 47.503 65.923 47.503 59.935 29.69 59.935"/>
    <polygon points="23.751 71.914 47.503 71.914 47.503 65.924 23.751 65.924"/>
    <polygon points="47.503 35.979 53.441 35.979 53.441 24.001 47.503 24.001"/>
    <polygon points="53.441 35.979 59.38 35.979 59.38 29.99 53.441 29.99"/>
    <path d="M59.38,35.979 L59.38,29.99"/>
    <polygon points="47.503 41.968 59.38 41.968 59.38 35.979 47.503 35.979"/>
    <path d="M59.38,41.968 L59.38,35.979"/>
    <polygon points="47.503 47.959 59.38 47.959 59.38 41.968 47.503 41.968"/>
    <path d="M59.38,47.959 L59.38,41.968"/>
    <polygon points="47.503 53.947 59.38 53.947 59.38 47.959 47.503 47.959"/>
    <path d="M59.38,53.947 L59.38,47.959"/>
    <polygon points="47.503 59.935 59.38 59.935 59.38 53.947 47.503 53.947"/>
    <path d="M59.38,59.935 L59.38,53.947"/>
    <polygon points="47.503 65.923 59.38 65.923 59.38 59.935 47.503 59.935"/>
    <path d="M59.38,65.924 L59.38,59.935"/>
    <polygon points="47.503 71.914 53.441 71.914 53.441 65.924 47.503 65.924"/>
  </g>
</svg>
