<svg xmlns="http://www.w3.org/2000/svg" width="101" height="84" viewBox="0 0 101 84" xmlns:xlink="http://www.w3.org/1999/xlink">
  <defs>
    <polygon id="a" points="0 83.94 100.903 83.94 100.903 .047 0 .047"/>
  </defs>
  <g fill="none" fill-rule="evenodd">
    <mask id="b" fill="white">
      <use xlink:href="#a"/>
    </mask>
    <path fill="#0A0B09" d="M61.966,81.713 C61.972,81.641 61.977,81.567 61.977,81.493 C61.977,81.343 61.962,81.197 61.937,81.055 L78.485,77.148 L95.9,81.244 C95.892,81.326 95.888,81.409 95.888,81.493 C95.888,81.567 95.893,81.641 95.898,81.713 L61.966,81.713 L61.966,81.713 Z M58.699,34.039 C58.033,34.254 57.491,34.74 57.199,35.365 L48.254,32.552 L48.254,27.535 C49.208,27.409 49.992,26.747 50.296,25.861 C54.282,27.004 57.452,30.097 58.699,34.039 L58.699,34.039 Z M59.305,69.832 C58.174,69.906 57.247,70.729 57.018,71.81 L50.41,70.701 C50.417,70.649 50.421,70.596 50.423,70.543 C54.475,69.432 57.761,66.459 59.305,62.606 L59.305,69.832 L59.305,69.832 Z M95.984,73.016 C96.253,73.965 97.065,74.685 98.066,74.816 L98.066,79.009 C97.142,79.131 96.375,79.757 96.054,80.603 L79.925,76.808 L95.984,73.016 L95.984,73.016 Z M62.313,72.663 L95.911,72.663 C95.917,72.709 95.924,72.756 95.934,72.802 L79.445,76.694 L62.313,72.663 L62.313,72.663 Z M60.129,79.075 L60.129,74.75 C60.904,74.539 61.529,73.966 61.81,73.223 L78.007,77.034 L61.889,80.84 C61.657,79.982 60.985,79.309 60.129,79.075 L60.129,79.075 Z M50.376,70.918 L56.981,72.026 C56.969,72.127 56.962,72.229 56.962,72.333 C56.962,73.488 57.746,74.46 58.81,74.75 L58.81,79.075 C58.429,79.18 58.083,79.37 57.798,79.627 L49.813,72.039 C50.088,71.725 50.287,71.342 50.376,70.918 L50.376,70.918 Z M25.343,68.935 L38.527,56.551 L46.439,68.376 C46,68.7 45.669,69.163 45.515,69.702 L25.72,69.717 C25.64,69.433 25.511,69.169 25.343,68.935 L25.343,68.935 Z M4.507,68.885 L18.284,55.123 L22.265,68.116 C21.6,68.421 21.092,69.006 20.893,69.721 L4.925,69.732 C4.84,69.422 4.697,69.135 4.507,68.885 L4.507,68.885 Z M12.572,36.475 L3.188,67.115 L3.188,5.834 L12.572,36.475 L12.572,36.475 Z M22.265,4.834 L17.985,18.803 L4.447,4.147 C4.736,3.793 4.93,3.359 4.992,2.885 L20.822,2.885 C20.936,3.754 21.496,4.48 22.265,4.834 L22.265,4.834 Z M21.862,23.002 L18.503,19.363 L22.895,5.026 C22.922,5.031 22.949,5.035 22.977,5.039 L22.977,22.566 C22.566,22.621 22.186,22.774 21.862,23.002 L21.862,23.002 Z M45.933,26.572 L41.937,30.564 L25.775,25.481 C25.781,25.447 25.786,25.414 25.791,25.381 L45.439,25.381 C45.498,25.826 45.673,26.233 45.933,26.572 L45.933,26.572 Z M44.601,31.402 L46.826,27.303 C47.064,27.419 47.321,27.498 47.594,27.535 L47.594,32.344 L44.601,31.402 L44.601,31.402 Z M47.594,47.128 L47.32,47.385 L39.765,40.311 L44.279,31.994 L47.594,33.035 L47.594,47.128 L47.594,47.128 Z M57.434,37.886 L48.254,46.508 L48.254,33.243 L57.001,35.995 C56.977,36.135 56.962,36.278 56.962,36.426 C56.962,36.971 57.138,37.475 57.434,37.886 L57.434,37.886 Z M57.717,57.121 L53.799,53.451 L58.768,38.832 C58.824,38.849 58.883,38.864 58.94,38.877 L58.94,56.461 C58.471,56.562 58.049,56.795 57.717,57.121 L57.717,57.121 Z M39.524,55.613 L45.366,66.375 L38.689,56.399 L39.524,55.613 L39.524,55.613 Z M34.461,50.079 L35.49,48.184 L39.198,55.014 L38.318,55.842 L34.461,50.079 L34.461,50.079 Z M23.197,50.215 L23.197,67.893 C23.096,67.897 22.994,67.907 22.895,67.924 L18.812,54.595 L23.197,50.215 L23.197,50.215 Z M15.479,43.715 L21.356,30.891 L23.197,33.641 L23.197,49.283 L18.594,53.881 L15.479,43.715 L15.479,43.715 Z M4.26,68.199 L15.065,44.617 L18.066,54.408 L4.26,68.199 L4.26,68.199 Z M14.484,42.719 L5.029,63.35 L12.917,37.601 L14.484,42.719 L14.484,42.719 Z M16.978,24.346 L20.495,29.604 L14.898,41.816 L13.263,36.475 L16.978,24.346 L16.978,24.346 Z M3.823,4.688 L16.504,23.639 L12.917,35.35 L3.567,4.826 C3.656,4.785 3.74,4.738 3.823,4.688 L3.823,4.688 Z M16.587,23.367 L4.188,4.838 L17.761,19.533 L16.587,23.367 L16.587,23.367 Z M21.7,26.975 L20.602,29.368 L17.061,24.074 L18.28,20.094 L21.378,23.448 C21.017,23.883 20.799,24.441 20.799,25.051 C20.799,25.824 21.149,26.516 21.7,26.975 L21.7,26.975 Z M35.85,36.645 L25.209,26.682 C25.356,26.51 25.48,26.318 25.577,26.111 L41.41,31.092 L35.85,36.645 L35.85,36.645 Z M30.004,43.417 L31.883,41.539 L35.365,47.953 L34.323,49.872 L30.004,43.417 L30.004,43.417 Z M29.471,43.017 L23.418,49.063 L23.418,33.969 L29.471,43.017 L29.471,43.017 Z M23.418,27.553 C23.693,27.541 23.956,27.484 24.202,27.391 L31.555,40.936 L29.629,42.857 L23.418,33.574 L23.418,27.553 L23.418,27.553 Z M23.197,27.553 L23.197,33.245 L21.464,30.656 L22.899,27.524 C22.997,27.538 23.096,27.549 23.197,27.553 L23.197,27.553 Z M35.693,36.801 L32.042,40.448 L24.782,27.076 C24.88,27.005 24.974,26.928 25.059,26.843 L35.693,36.801 L35.693,36.801 Z M23.418,67.893 L23.418,49.996 L29.844,43.575 L34.204,50.09 L24.404,68.143 C24.103,67.996 23.77,67.908 23.418,67.893 L23.418,67.893 Z M35.74,47.262 L32.37,41.053 L36.176,37.252 L39.49,40.356 L35.74,47.262 L35.74,47.262 Z M39.695,54.547 L35.866,47.492 L39.655,40.511 L47.159,47.536 L39.695,54.547 L39.695,54.547 Z M48.254,67.911 L48.254,48.561 L53.546,53.516 L48.625,67.988 C48.505,67.953 48.382,67.928 48.254,67.911 L48.254,67.911 Z M47.594,67.911 C47.396,67.938 47.208,67.986 47.028,68.055 L40.021,55.147 L47.594,48.033 L47.594,67.911 L47.594,67.911 Z M57.883,38.368 C58.085,38.533 58.312,38.664 58.56,38.762 L53.623,53.287 L48.254,48.26 L48.254,47.414 L57.883,38.368 L57.883,38.368 Z M44.066,31.926 L39.599,40.155 L36.332,37.096 L42.12,31.315 L44.066,31.926 L44.066,31.926 Z M46.399,27.039 C46.476,27.097 46.553,27.149 46.633,27.198 L44.387,31.335 L42.646,30.788 L46.399,27.039 L46.399,27.039 Z M24.893,68.453 C24.8,68.377 24.7,68.311 24.599,68.248 L34.343,50.297 L38.155,55.994 L24.893,68.453 L24.893,68.453 Z M50.153,69.249 C49.874,68.708 49.404,68.283 48.833,68.061 L53.722,53.68 L57.566,57.281 C57.19,57.72 56.962,58.289 56.962,58.912 C56.962,59.919 57.557,60.785 58.411,61.184 C57.214,65.081 54.088,68.141 50.153,69.249 L50.153,69.249 Z M98.727,79.009 L98.727,74.816 C99.955,74.654 100.903,73.606 100.903,72.333 C100.903,70.947 99.78,69.824 98.395,69.824 C97.123,69.824 96.073,70.774 95.911,72.004 L61.953,72.004 C61.798,70.828 60.832,69.911 59.636,69.832 L59.636,61.692 C59.664,61.598 59.691,61.502 59.72,61.408 C60.987,61.281 61.977,60.213 61.977,58.912 C61.977,57.805 61.258,56.865 60.261,56.533 L60.261,38.805 C61.258,38.473 61.977,37.534 61.977,36.426 C61.977,35.041 60.854,33.918 59.47,33.918 C59.431,33.918 59.393,33.922 59.354,33.924 C58.055,29.714 54.675,26.41 50.423,25.211 C50.427,25.158 50.432,25.105 50.432,25.051 C50.432,23.666 49.309,22.543 47.925,22.543 C46.651,22.543 45.602,23.492 45.439,24.721 L25.791,24.721 C25.643,23.601 24.757,22.715 23.637,22.566 L23.637,5.039 C24.866,4.877 25.814,3.827 25.814,2.555 C25.814,1.17 24.692,0.047 23.307,0.047 C22.034,0.047 20.984,0.996 20.822,2.225 L4.992,2.225 C4.831,0.996 3.781,0.047 2.509,0.047 C1.123,0.047 0,1.17 0,2.555 C0,3.717 0.794,4.693 1.868,4.977 L1.868,67.973 C0.794,68.256 0,69.232 0,70.395 C0,71.779 1.123,72.903 2.509,72.903 C3.665,72.903 4.637,72.118 4.926,71.053 L20.885,71.041 C21.172,72.112 22.145,72.903 23.307,72.903 C24.469,72.903 25.444,72.11 25.728,71.037 L45.498,71.022 C45.777,72.104 46.757,72.903 47.925,72.903 C48.6,72.903 49.213,72.635 49.663,72.199 L57.64,79.781 C57.221,80.229 56.962,80.83 56.962,81.493 C56.962,82.878 58.085,84 59.47,84 C60.273,84 60.987,83.621 61.446,83.032 L96.419,83.032 C96.878,83.621 97.592,84 98.395,84 C99.78,84 100.903,82.878 100.903,81.493 C100.903,80.22 99.955,79.171 98.727,79.009 L98.727,79.009 Z" mask="url(#b)"/>
  </g>
</svg>
