<svg xmlns="http://www.w3.org/2000/svg" width="102" height="84" viewBox="0 0 102 84" xmlns:xlink="http://www.w3.org/1999/xlink">
  <defs>
    <polygon id="a" points=".001 42.94 83.296 42.94 83.296 .234 .001 .234"/>
    <polygon id="c" points=".019 60.94 38.359 60.94 38.359 .846 .019 .846 .019 60.94"/>
  </defs>
  <g fill="none" fill-rule="evenodd">
    <path fill="#54B1D8" d="M41.999 33.083C38.335 33.083 34.961 37.114 33.642 41.732 32.323 46.351 31.663 48.99 31.002 51.482 30.343 53.976 30.563 56.248 33.348 56.248 36.135 56.248 41.34 53.828 44.858 51.189 48.377 48.551 49.037 44.592 48.01 40.853 46.985 37.114 44.785 33.083 41.999 33.083M39.397 62.865C39.397 65.412 40.364 71.898 46.362 71.898 52.125 71.898 57.458 68.437 59.354 62.516 61.252 56.594 60.62 47.908 57.981 47.908 54.283 47.908 52.592 51.739 48.084 54.708 43.505 57.723 39.397 59.372 39.397 62.865M24.039 23.919C20.081 23.919 15.022 26.558 15.022 31.689 15.022 36.821 17.075 44.665 17.808 47.818 18.541 50.97 19.494 52.217 21.473 52.217 23.452 52.217 32.762 45.98 32.762 32.862 32.762 28.684 31.516 23.919 24.039 23.919M23.452 67.097C20.96 67.097 21.665 71.862 24.919 71.862 25.752 71.862 26.235 71.184 26.235 69.223 26.235 68.196 25.227 67.097 23.452 67.097M56.819 31.25C53.981 31.25 54.785 36.674 58.489 36.674 59.436 36.674 59.741 34.839 59.741 33.67 59.741 32.502 58.405 31.25 56.819 31.25M51.786 35.759C53.471 35.759 53.765 38.911 53.765 41.33 53.765 43.749 53.619 46.682 51.86 46.682 50.1 46.682 50.32 42.43 50.32 41.696 50.32 40.963 50.613 35.759 51.786 35.759M11.932 12.923C14.184 12.923 14.575 17.133 14.575 20.364 14.575 23.596 14.379 27.512 12.03 27.512 9.68 27.512 9.973 21.834 9.973 20.854 9.973 19.875 10.366 12.923 11.932 12.923M6.151 32.275C7.838 32.275 11.944 35.941 11.944 39.313 11.944 41.586 10.987 42.08 9.448 42.08 7.945 42.08 6.68 40.174 5.786 37.262 5.288 35.643 4.54 32.275 6.151 32.275M7.288 61.416C4.209 61.416.324 63.357.324 66.84.324 70.35 3.11 71.973 6.995 71.973 10.879 71.973 7.581 68.783 7.581 66.529 7.581 63.836 9.458 61.416 7.288 61.416M19.76 59.712C20.653 61.386 23.114 59.52 26.085 57.029 29.053 54.539 29.053 52.336 27.904 51.856 26.754 51.377 18.227 56.838 19.76 59.712M13.722 60.211C14.145 61.004 15.309 60.121 16.714 58.942 18.12 57.763 18.12 56.721 17.576 56.494 17.032 56.268 12.997 58.851 13.722 60.211M12.182 10.179C12.604 10.971 13.77 10.089 15.175 8.91 16.581 7.73 16.581 6.687 16.037 6.462 15.493 6.234 11.458 8.818 12.182 10.179M55.563 40.963C55.907 41.604 56.852 40.889 57.993 39.932 59.133 38.975 59.133 38.128 58.692 37.945 58.25 37.76 54.975 39.857 55.563 40.963"/>
    <g transform="translate(0 41)">
      <mask id="b" fill="white">
        <use xlink:href="#a"/>
      </mask>
      <path fill="#54B1D8" d="M59.235 6.738C60.301 6.926 60.331 5.164 60.256 2.953 60.182.741 59.192-.035 58.573.314 57.952.662 57.405 6.416 59.235 6.738M.581 16.641C2.694 16.641 4.246 14.808 5.932 12.242 7.618 9.677 8.211 7.184 6.665 7.184 3.793 7.184-1.814 16.641.581 16.641M73.676 36.251C72.742 37.148 75.608 39.865 78.217 41.481 80.829 43.098 83.19 43.619 83.295 42.076 83.399 40.533 75.248 34.741 73.676 36.251" mask="url(#b)"/>
    </g>
    <path fill="#54B1D8" d="M50.292,32.853 C53.516,34.466 54.932,32.145 55.675,30.658 C56.419,29.174 55.792,27.002 52.706,25.458 C49.623,23.916 46.619,25.637 45.954,26.967 C45.288,28.295 45.495,30.451 50.292,32.853"/>
    <g fill="#54B1D8">
      <path d="M85.303 81.941C88.987 83.785 90.597 80.893 91.446 79.195 92.295 77.498 91.579 75.018 88.055 73.254 84.53 71.49 81.097 73.459 80.337 74.976 79.579 76.495 79.821 79.197 85.303 81.941M1.459 19.631C3.586 19.631 4.686 20.363 6.151 24.029 7.618 27.695 7.031 28.721 6.298 28.721 5.566 28.721 3 26.448 1.459 23.809-.08 21.17-.006 19.631 1.459 19.631M2.414.02C.067.02.288 5.665.288 8.012.288 10.357 3.146 15.781 6.811 15.781 10.477 15.781 9.231 11.971 8.205 9.77 7.178 7.571 5.346.02 2.414.02M6.958 1.927C6.958 3.686 10.55 5.078 12.75 5.078 14.949 5.078 16.782 4.639 16.782 2.879 16.782 1.12 15.022.02 12.456.02 9.891.02 6.958.533 6.958 1.927"/>
    </g>
    <path fill="#54B1D8" d="M21.433.021C19.178.021 18.551 1.713 18.551 3.404 18.551 5.096 20.18 6.161 22.059 6.161 23.939 6.161 24.065 3.279 24.065 2.652 24.065 2.026 23.438.021 21.433.021M22.731 7.729C20.081 6.297 17.918 11.291 16.646 13.646 15.374 16.002 15.55 20.889 18.731 22.605 21.911 24.322 23.022 19.447 23.237 17.357 23.454 15.268 25.145 9.031 22.731 7.729M6.185 58.668C7.368 58.668 8.502 57.814 11.739 53.554 15.192 49.006 16.708 46.133 15.388 45.619 14.069 45.105 10.624 48.771 8.131 52.435 5.639 56.102 4.756 58.668 6.185 58.668M60.143 74.675C60.28 76.078 61.709 76.524 67.418 76.342 73.123 76.158 77.055 74.225 76.515 72.916 75.974 71.607 70.944 71.65 66.572 72.382 62.201 73.113 60.016 73.376 60.143 74.675M.36 36.967C.36 34.622 1.09 33.229 2.047 33.229 3.565 33.229 5.786 36.747 5.786 41.806 5.786 46.864 3.293 48.551 2.047 48.551.8 48.551.288 47.561.288 44.665.288 42.275.36 36.967.36 36.967M16.165 63.357C12.794 63.357 10.323 66.804 10.323 69.201 10.323 71.598 12.467 71.973 14.891 71.973L18.412 71.973C20.06 71.973 21.483 70.772 20.883 68.676 20.284 66.579 19.237 63.357 16.165 63.357M32.441 57.383C29.924 57.383 26.856 60.058 26.856 64.935 26.856 69.811 27.721 71.935 31.655 71.935L36.131 71.935C38.147 71.935 40.511 70.177 38.077 67.354 34.524 63.235 35.915 57.383 32.441 57.383M97.184 83.921C99.265 83.921 101.8 81.711 101.8 77.68 101.8 74.043 100.477 71.893 97.835 71.893L94.392 71.893C91.948 71.893 91.016 73.904 92.526 75.68 95.84 79.578 94.313 83.921 97.184 83.921"/>
    <g transform="translate(33 23)">
      <mask id="d" fill="white">
        <use xlink:href="#c"/>
      </mask>
      <path fill="#54B1D8" d="M2.366.882C3.863.882 7.606.846 9.182.846 10.758.846 12.114 2.385 11.088 4.768 10.062 7.15 7.35 6.527 5.077 6.527 2.438 6.527.019 4.914.019 2.972.019 1.029 1.042.882 2.366.882M30.09 55.313C31.588 55.313 33.408 55.277 34.984 55.277 36.028 55.277 38.359 55.303 38.359 57.695 38.359 60.334 34.621 60.957 32.348 60.957 29.708 60.957 27.29 59.344 27.29 57.402 27.29 55.605 28.766 55.313 30.09 55.313" mask="url(#d)"/>
    </g>
  </g>
</svg>
