<svg xmlns="http://www.w3.org/2000/svg" width="401" height="329" viewBox="0 0 401 329" xmlns:xlink="http://www.w3.org/1999/xlink">
  <defs>
    <polygon id="a" points="235.989 .04 .06 .04 .06 291.029 235.989 291.029 235.989 .04"/>
    <polygon id="c" points=".06 .137 .06 233.463 228.562 233.463 228.562 .137 .06 .137"/>
  </defs>
  <g fill="none" fill-rule="evenodd">
    <mask id="b" fill="white">
      <use xlink:href="#a"/>
    </mask>
    <path fill="#FDD13A" d="M0,239.934 C0.703,159.012 0.344,70.008 0,0 C48,0 67.805,32.625 92.793,89.598 C171.246,64.82 236.246,107.383 235.988,187 C235.586,311.656 0,317.77 0,239.934 L0,239.934 Z" mask="url(#b)"/>
    <path stroke="#000000" stroke-width=".8" d="M0,239.934 C0.703,159.012 0.344,70.008 0,0 C48,0 67.805,32.625 92.793,89.598 C171.246,64.82 236.246,107.383 235.988,187 C235.586,311.656 0,317.77 0,239.934 L0,239.934 Z" mask="url(#b)"/>
    <path fill="#000000" d="M179.156,139.531 C175.969,139.516 173.926,139.992 171.062,141.324 C165.422,143.953 161.086,149.23 159.691,155.172 C158.98,158.203 159.102,162.473 159.984,165.516 C162.129,172.922 167.883,178.211 175.805,180.059 C177.84,180.535 182.645,180.375 184.961,179.754 C187.859,178.98 191.207,177.16 193.348,175.199 C200.449,168.691 202.211,159.113 197.891,150.52 C196.961,148.664 196.117,147.551 194.164,145.594 C189.984,141.402 186.402,139.809 180.602,139.566 C180.094,139.543 179.613,139.531 179.156,139.531 L179.156,139.531 Z"/>
    <path fill="#FFFFFF" d="M171.816,145.961 C173.359,145.891 174.953,146.461 176.23,147.734 C179.285,150.789 178.301,155.66 174.289,157.336 C169.328,159.406 164.5,154.152 166.898,149.289 C167.926,147.207 169.828,146.055 171.816,145.961 L171.816,145.961 Z"/>
    <path fill="#EF6A4A" d="M150.668,181.836 C147.344,181.832 146.113,182.109 143.031,183.574 C139.793,185.113 135.547,189.516 134.945,191.965 C134.828,192.43 134.57,193.07 134.367,193.391 C133.168,195.285 133.145,200.246 134.312,203.996 C135.254,207.02 136.004,208.328 138.059,210.523 C140.219,212.836 142.496,214.262 145.496,215.18 C147.273,215.727 148.453,215.879 150.969,215.895 C153.98,215.91 154.32,215.852 156.562,214.922 C163.617,211.992 167.668,206.047 167.668,198.625 C167.668,192.594 164.18,186.805 158.793,183.902 C155.793,182.281 154.055,181.84 150.668,181.836 L150.668,181.836 Z"/>
    <path fill="#000000" d="M234.715,202.156 C228.262,202.145 227.078,202.52 227.059,204.57 C227.055,205.234 227.543,205.895 229.465,207.809 C231.023,209.359 232.223,210.305 232.875,210.492 C233.617,207.789 234.23,205.008 234.715,202.156 L234.715,202.156 Z"/>
    <mask id="d" fill="white">
      <use xlink:href="#c"/>
    </mask>
    <path fill="#000000" d="M187.293 221.039C186.938 221.07 186.605 221.27 186.195 221.594 185.055 222.488 185.176 223.652 186.605 225.547 189.25 229.051 194.242 232.18 198.508 233.008 199.707 233.242 201.254 233.445 201.949 233.461 204.285 233.512 209.039 232.305 215.055 230.137 221.285 227.891 223.398 227.277 226.387 227 227.156 225.527 227.883 224.031 228.562 222.504 224.191 222.418 221.738 223.086 210.422 227.055 203.48 229.492 200.238 229.586 195.891 227.477 194.203 226.656 193.094 225.809 190.973 223.703 188.953 221.703 188.074 220.969 187.293 221.039L187.293 221.039zM.004.137C.133 26.367.266 55.266.34 85.402L63.375 33.898C47.621 12.008 28.938.137.004.137L.004.137z" mask="url(#d)"/>
    <path fill="#FDD13A" d="M221.898,328 L240.398,327.996 C240.5,327.938 241.57,326.027 242.777,323.754 C243.984,321.48 245.082,319.445 245.215,319.23 L245.457,318.844 L264.418,325.016 L264.609,324.781 C264.711,324.652 266.496,320.23 268.574,314.953 L272.348,305.355 L275.172,306.207 C276.727,306.676 283.645,308.707 290.551,310.715 L303.105,314.371 L303.336,314.086 C303.465,313.93 307.426,307.465 312.141,299.719 C316.859,291.973 320.852,285.504 321.012,285.344 L321.305,285.055 L322.996,287.152 C323.926,288.309 325.734,290.543 327.012,292.121 C328.293,293.703 330.195,296.059 331.242,297.359 C332.289,298.66 334.004,300.789 335.055,302.09 C336.102,303.391 338.27,306.082 339.867,308.074 C341.469,310.066 343.359,312.398 344.066,313.262 C344.773,314.125 346.543,316.301 347.996,318.098 L350.641,321.371 L352.355,320.543 C353.297,320.09 358.184,317.523 363.211,314.844 C372.738,309.762 380.668,305.562 388.816,301.285 C391.453,299.898 395.051,297.973 396.805,297 L400,295.238 L399.801,294.945 C398.719,293.371 392.172,286.082 389.992,284.027 C389.551,283.609 388.137,282.223 386.855,280.945 C379.703,273.828 367.93,263.52 358.844,256.414 C342.789,243.863 330.402,236.109 319.996,232.098 L317.387,231.09 C317.387,231.09 314.742,236.703 313.82,238.945 C309.141,250.383 303.875,263.242 301.418,269.25 C296.363,281.617 294.652,285.793 293.551,288.43 L292.391,291.219 L276.875,289.969 C268.344,289.285 261.199,288.75 261,288.781 L260.637,288.836 L258.637,299.719 C257.539,305.703 256.594,311.023 256.535,311.543 C256.477,312.062 256.344,312.539 256.238,312.602 C256.133,312.66 253.844,312.176 251.156,311.523 C248.469,310.871 244.887,310.012 243.199,309.613 L240.133,308.887 L237.914,314.77 C236.695,318.008 235.637,320.688 235.562,320.73 C235.211,320.934 222.719,319.832 222.719,319.832 L221.898,328 Z"/>
    <g transform="translate(221 231)">
      <path stroke="#000000" stroke-width=".8" d="M0.898,97 L19.398,96.996 C19.5,96.938 20.57,95.027 21.777,92.754 C22.984,90.48 24.082,88.445 24.215,88.23 L24.457,87.844 L43.418,94.016 L43.609,93.781 C43.711,93.652 45.496,89.23 47.574,83.953 L51.348,74.355 L54.172,75.207 C55.727,75.676 62.645,77.707 69.551,79.715 L82.105,83.371 L82.336,83.086 C82.465,82.93 86.426,76.465 91.141,68.719 C95.859,60.973 99.852,54.504 100.012,54.344 L100.305,54.055 L101.996,56.152 C102.926,57.309 104.734,59.543 106.012,61.121 C107.293,62.703 109.195,65.059 110.242,66.359 C111.289,67.66 113.004,69.789 114.055,71.09 C115.102,72.391 117.27,75.082 118.867,77.074 C120.469,79.066 122.359,81.398 123.066,82.262 C123.773,83.125 125.543,85.301 126.996,87.098 L129.641,90.371 L131.355,89.543 C132.297,89.09 137.184,86.523 142.211,83.844 C151.738,78.762 159.668,74.562 167.816,70.285 C170.453,68.898 174.051,66.973 175.805,66 L179,64.238 L178.801,63.945 C177.719,62.371 171.172,55.082 168.992,53.027 C168.551,52.609 167.137,51.223 165.855,49.945 C158.703,42.828 146.93,32.52 137.844,25.414 C121.789,12.863 109.402,5.109 98.996,1.098 L96.387,0.09 C96.387,0.09 93.742,5.703 92.82,7.945 C88.141,19.383 82.875,32.242 80.418,38.25 C75.363,50.617 73.652,54.793 72.551,57.43 L71.391,60.219 L55.875,58.969 C47.344,58.285 40.199,57.75 40,57.781 L39.637,57.836 L37.637,68.719 C36.539,74.703 35.594,80.023 35.535,80.543 C35.477,81.062 35.344,81.539 35.238,81.602 C35.133,81.66 32.844,81.176 30.156,80.523 C27.469,79.871 23.887,79.012 22.199,78.613 L19.133,77.887 L16.914,83.77 C15.695,87.008 14.637,89.688 14.562,89.73 C14.211,89.934 1.719,88.832 1.719,88.832 L0.898,97 Z"/>
      <path fill="#DCA03E" d="M98.859,15.141 C92.113,22.316 85.926,27.879 79.477,40.547 C75.695,49.789 73.52,55.109 72.551,57.43 L71.391,60.219 L55.875,58.969 C47.344,58.285 40.199,57.75 40,57.781 L39.633,57.836 L37.641,68.719 C36.539,74.703 35.594,80.023 35.535,80.543 C35.477,81.062 35.344,81.539 35.238,81.602 C35.133,81.66 32.844,81.18 30.156,80.523 C27.469,79.871 23.887,79.012 22.199,78.613 L19.133,77.887 L16.914,83.77 C15.695,87.008 14.637,89.688 14.562,89.73 C14.211,89.934 1.719,88.832 1.719,88.832 C1.727,88.832 3.293,93.406 3.293,93.406 C4.184,93.766 8.195,94.543 12.105,95.453 C16.016,96.359 19.293,97.055 19.398,96.996 C19.5,96.938 20.57,95.027 21.777,92.754 C22.984,90.48 24.082,88.441 24.215,88.23 L24.453,87.844 L43.422,94.016 L43.609,93.781 C43.711,93.652 45.496,89.23 47.57,83.953 L51.348,74.355 L54.172,75.207 C55.723,75.676 62.645,77.707 69.551,79.715 L82.105,83.371 L82.336,83.086 C82.461,82.93 86.426,76.465 91.141,68.719 C95.859,60.973 99.852,54.504 100.012,54.344 L100.305,54.055 L101.996,56.152 C102.926,57.309 104.734,59.547 106.012,61.125 C107.293,62.703 109.195,65.059 110.242,66.359 C111.289,67.66 113.004,69.789 114.055,71.09 C115.102,72.391 117.27,75.086 118.867,77.074 C120.469,79.066 122.355,81.398 123.066,82.262 C123.773,83.121 125.543,85.301 126.996,87.098 L129.641,90.367 C125.957,64.863 113.922,40.219 98.859,15.141 L98.859,15.141 Z"/>
    </g>
    <path fill="#8B3D1B" d="M240.133,308.887 L237.914,314.77 C236.691,318.008 235.637,320.688 235.562,320.73 C235.211,320.934 222.719,319.832 222.719,319.832 C222.727,319.832 221.898,328 221.898,328 L240.395,327.996 C240.496,327.938 241.57,326.027 242.777,323.754 C243.984,321.477 245.082,319.441 245.215,319.23 L245.453,318.844 L254.938,321.93 L264.418,325.016 L264.605,324.781 C264.68,324.691 267.328,318.074 268.574,314.953 L267.391,311.238 L264.945,314.289 L263.246,311.355 L260.723,313.445 L259.836,311.477 L259.449,310.094 L256.238,312.602 C256.133,312.66 253.844,312.176 251.156,311.523 C248.465,310.871 244.887,310.012 243.199,309.613 L240.133,308.887 Z"/>
  </g>
</svg>
