<svg xmlns="http://www.w3.org/2000/svg" width="113" height="84" viewBox="0 0 113 84" xmlns:xlink="http://www.w3.org/1999/xlink">
  <defs>
    <polygon id="a" points=".079 11.941 41.624 11.941 41.624 5.981 41.624 .021 .079 .021"/>
    <polygon id="c" points="24.267 .27 .424 .27 .424 13.297 24.267 13.297 24.267 .27"/>
    <polygon id="e" points=".192 8.941 50.239 8.941 50.239 .87 .192 .87 .192 8.941"/>
  </defs>
  <g fill="none" fill-rule="evenodd">
    <path fill="#DA3284" d="M0.037,12.134 C0.037,12.777 0.521,13.297 1.115,13.297 L22.395,13.297 C22.99,13.297 23.474,12.777 23.474,12.134 C23.474,11.492 22.99,10.97 22.395,10.97 L1.115,10.97 C0.521,10.97 0.037,11.492 0.037,12.134"/>
    <path fill="#D9222A" d="M11.351,36.106 C11.351,37.904 12.702,39.361 14.368,39.361 L68.289,39.361 C69.955,39.361 71.307,37.904 71.307,36.106 C71.307,34.306 69.955,32.848 68.289,32.848 L14.368,32.848 C12.702,32.848 11.351,34.306 11.351,36.106"/>
    <g transform="translate(71 72)">
      <mask id="b" fill="white">
        <use xlink:href="#a"/>
      </mask>
      <path fill="#D9222A" d="M0.134,3.017 C0.134,4.671 1.377,6.011 2.909,6.011 L38.849,6.011 C40.382,6.011 41.624,4.671 41.624,3.017 C41.624,1.36 40.382,0.021 38.849,0.021 L2.909,0.021 C1.377,0.021 0.134,1.36 0.134,3.017" mask="url(#b)"/>
      <path fill="#4C7AB0" d="M0.079,9.005 C0.079,10.659 1.322,11.999 2.854,11.999 L38.849,11.999 C40.382,11.999 41.624,10.659 41.624,9.005 C41.624,7.351 40.382,6.009 38.849,6.009 L2.854,6.009 C1.322,6.009 0.079,7.351 0.079,9.005" mask="url(#b)"/>
    </g>
    <path fill="#2C4187" d="M11.351,42.621 C11.351,44.419 12.702,45.878 14.368,45.878 L68.289,45.878 C69.955,45.878 71.307,44.419 71.307,42.621 C71.307,40.822 69.955,39.365 68.289,39.365 L14.368,39.365 C12.702,39.365 11.351,40.822 11.351,42.621"/>
    <path fill="#D9222A" d="M11.351,49.13 C11.351,50.927 12.702,52.386 14.368,52.386 L68.289,52.386 C69.955,52.386 71.307,50.927 71.307,49.13 C71.307,47.329 69.955,45.872 68.289,45.872 L14.368,45.872 C12.702,45.872 11.351,47.329 11.351,49.13"/>
    <path fill="#DA3284" d="M11.351,55.661 C11.351,57.46 12.702,58.917 14.368,58.917 L68.289,58.917 C69.955,58.917 71.307,57.46 71.307,55.661 C71.307,53.862 69.955,52.405 68.289,52.405 L14.368,52.405 C12.702,52.405 11.351,53.862 11.351,55.661"/>
    <path fill="#2C4187" d="M11.204,62.167 C11.204,63.966 12.556,65.423 14.222,65.423 L68.142,65.423 C69.81,65.423 71.161,63.966 71.161,62.167 C71.161,60.368 69.81,58.909 68.142,58.909 L14.222,58.909 C12.556,58.909 11.204,60.368 11.204,62.167"/>
    <path fill="#6D1A31" d="M11.351,68.69 C11.351,70.487 12.702,71.946 14.368,71.946 L63.206,71.946 C64.873,71.946 66.224,70.487 66.224,68.69 C66.224,66.89 64.873,65.433 63.206,65.433 L14.368,65.433 C12.702,65.433 11.351,66.89 11.351,68.69"/>
    <path fill="#DA3284" d="M11.351,29.591 C11.351,31.388 12.702,32.847 14.368,32.847 L63.206,32.847 C64.873,32.847 66.224,31.388 66.224,29.591 C66.224,27.792 64.873,26.333 63.206,26.333 L14.368,26.333 C12.702,26.333 11.351,27.792 11.351,29.591"/>
    <path fill="#D9222A" d="M5.69,38.198 C5.69,38.839 6.173,39.361 6.769,39.361 L44.058,39.361 C44.653,39.361 45.136,38.839 45.136,38.198 C45.136,37.555 44.653,37.034 44.058,37.034 L6.769,37.034 C6.173,37.034 5.69,37.555 5.69,38.198"/>
    <path fill="#D9252A" d="M0.028,51.222 C0.028,51.864 0.511,52.386 1.105,52.386 L37.351,52.386 C37.946,52.386 38.429,51.864 38.429,51.222 C38.429,50.579 37.946,50.058 37.351,50.058 L1.105,50.058 C0.511,50.058 0.028,50.579 0.028,51.222"/>
    <path fill="#AD2352" d="M5.464,29.591 C5.464,31.388 6.815,32.847 8.482,32.847 L32.289,32.847 C33.956,32.847 35.308,31.388 35.308,29.591 C35.308,27.79 33.956,26.333 32.289,26.333 L8.482,26.333 C6.815,26.333 5.464,27.79 5.464,29.591"/>
    <path fill="#4A76AE" d="M39.269,42.622 C39.269,44.419 40.62,45.878 42.286,45.878 L68.289,45.878 C69.955,45.878 71.307,44.419 71.307,42.622 C71.307,40.822 69.955,39.365 68.289,39.365 L42.286,39.365 C40.62,39.365 39.269,40.822 39.269,42.622"/>
    <path fill="#DA3284" d="M11.424,23.071 C11.424,24.869 12.774,26.328 14.442,26.328 L32.234,26.328 C33.901,26.328 35.252,24.869 35.252,23.071 C35.252,21.271 33.901,19.814 32.234,19.814 L14.442,19.814 C12.774,19.814 11.424,21.271 11.424,23.071"/>
    <path fill="#6D1A31" d="M11.424,16.56 C11.424,18.357 12.774,19.815 14.442,19.815 L32.306,19.815 C33.972,19.815 35.323,18.357 35.323,16.56 C35.323,14.76 33.972,13.302 32.306,13.302 L14.442,13.302 C12.774,13.302 11.424,14.76 11.424,16.56"/>
    <path fill="#E2BDD0" d="M21.968,16.56 C21.968,18.357 23.319,19.815 24.986,19.815 L32.306,19.815 C33.972,19.815 35.323,18.357 35.323,16.56 C35.323,14.76 33.972,13.302 32.306,13.302 L24.986,13.302 C23.319,13.302 21.968,14.76 21.968,16.56"/>
    <g transform="translate(11)">
      <mask id="d" fill="white">
        <use xlink:href="#c"/>
      </mask>
      <path fill="#DA3284" d="M0.439,10.041 C0.439,11.839 1.791,13.297 3.458,13.297 L21.249,13.297 C22.915,13.297 24.267,11.839 24.267,10.041 C24.267,8.242 22.915,6.784 21.249,6.784 L3.458,6.784 C1.791,6.784 0.439,8.242 0.439,10.041" mask="url(#d)"/>
      <path fill="#4A76AE" d="M0.424,3.527 C0.424,5.324 1.774,6.783 3.442,6.783 L21.234,6.783 C22.901,6.783 24.252,5.324 24.252,3.527 C24.252,1.728 22.901,0.269 21.234,0.269 L3.442,0.269 C1.774,0.269 0.424,1.728 0.424,3.527" mask="url(#d)"/>
    </g>
    <path fill="#E2BDD0" d="M11.351,49.13 C11.351,50.927 12.702,52.386 14.368,52.386 L40.371,52.386 C42.038,52.386 43.39,50.927 43.39,49.13 C43.39,47.329 42.038,45.872 40.371,45.872 L14.368,45.872 C12.702,45.872 11.351,47.329 11.351,49.13"/>
    <path fill="#D9222A" d="M5.464,49.13 C5.464,50.927 6.815,52.386 8.482,52.386 L26.114,52.386 C27.782,52.386 29.133,50.927 29.133,49.13 C29.133,47.329 27.782,45.872 26.114,45.872 L8.482,45.872 C6.815,45.872 5.464,47.329 5.464,49.13"/>
    <path fill="#6D1A31" d="M39.269,55.663 C39.269,57.46 40.62,58.917 42.286,58.917 L68.289,58.917 C69.955,58.917 71.307,57.46 71.307,55.663 C71.307,53.862 69.955,52.405 68.289,52.405 L42.286,52.405 C40.62,52.405 39.269,53.862 39.269,55.663"/>
    <path fill="#2C4187" d="M11.204,62.167 C11.204,63.966 12.556,65.423 14.222,65.423 L40.226,65.423 C41.892,65.423 43.243,63.966 43.243,62.167 C43.243,60.368 41.892,58.909 40.226,58.909 L14.222,58.909 C12.556,58.909 11.204,60.368 11.204,62.167"/>
    <path fill="#6D1A31" d="M0,70.782 C0,71.425 0.483,71.946 1.077,71.946 L40.32,71.946 C40.915,71.946 41.397,71.425 41.397,70.782 C41.397,70.14 40.915,69.618 40.32,69.618 L1.077,69.618 C0.483,69.618 0,70.14 0,70.782"/>
    <g transform="translate(54 75)">
      <mask id="f" fill="white">
        <use xlink:href="#e"/>
      </mask>
      <path fill="#D9222A" d="M0.192,1.942 C0.192,2.532 0.638,3.011 1.185,3.011 L38.931,3.011 C39.479,3.011 39.923,2.532 39.923,1.942 C39.923,1.351 39.479,0.87 38.931,0.87 L1.185,0.87 C0.638,0.87 0.192,1.351 0.192,1.942" mask="url(#f)"/>
      <path fill="#4C7AB0" d="M9.497,7.931 C9.497,8.521 9.942,8.999 10.489,8.999 L49.247,8.999 C49.794,8.999 50.239,8.521 50.239,7.931 C50.239,7.339 49.794,6.86 49.247,6.86 L10.489,6.86 C9.942,6.86 9.497,7.339 9.497,7.931" mask="url(#f)"/>
    </g>
    <path fill="#4A76AE" d="M5.683,5.619 C5.683,6.261 6.165,6.783 6.761,6.783 L29.8,6.783 C30.394,6.783 30.878,6.261 30.878,5.619 C30.878,4.976 30.394,4.455 29.8,4.455 L6.761,4.455 C6.165,4.455 5.683,4.976 5.683,5.619"/>
  </g>
</svg>
