<svg xmlns="http://www.w3.org/2000/svg" width="102" height="84" viewBox="0 0 102 84" xmlns:xlink="http://www.w3.org/1999/xlink">
  <defs>
    <polygon id="a" points="101.742 17.044 101.742 33.94 0 33.94 0 17.044 0 .147 101.742 .147"/>
  </defs>
  <g fill="none" fill-rule="evenodd">
    <polygon fill="#0A0B09" points="0 20.047 23.751 20.047 23.751 13.011 0 13.011"/>
    <polygon fill="#0A0B09" points="0 7.08 23.751 7.08 23.751 .044 0 .044"/>
    <path fill="#0A0B09" d="M42.666 25.978L0 25.978 0 33.014 41.052 33.014C45.524 33.014 56.025 33.138 59.929 39.369L59.929 35.47C58.113 29.244 52.505 25.978 42.666 25.978M42.776 38.944L0 38.944 0 45.98 41.052 45.98C51.077 45.98 57.398 46.344 59.929 47.746L59.929 44.645C57.986 39.755 49.592 38.944 42.776 38.944M42.666 71.914L0 71.914 0 64.877 41.052 64.877C45.524 64.877 56.025 64.752 59.929 58.523L59.929 62.422C58.113 68.648 52.505 71.914 42.666 71.914"/>
    <g transform="translate(0 50)">
      <mask id="b" fill="white">
        <use xlink:href="#a"/>
      </mask>
      <path fill="#0A0B09" d="M42.776 8.947L0 8.947 0 1.91 41.052 1.91C51.077 1.91 57.398 1.547 59.929.147L59.929 3.244C57.986 8.135 49.592 8.947 42.776 8.947M70.369 34L101.742 34 101.742 29.744 71.343 29.744C68.64 29.744 62.289 29.67 59.929 25.9L59.929 28.258C61.027 32.025 64.418 34 70.369 34" mask="url(#b)"/>
    </g>
    <path fill="#0A0B09" d="M70.3,76.158 L101.742,76.158 L101.742,71.902 L71.343,71.902 C65.281,71.902 61.459,71.684 59.929,70.836 L59.929,72.709 C61.103,75.666 66.179,76.158 70.3,76.158"/>
  </g>
</svg>
