<svg xmlns="http://www.w3.org/2000/svg" width="104" height="84" viewBox="0 0 104 84" xmlns:xlink="http://www.w3.org/1999/xlink">
  <defs>
    <polygon id="a" points=".06 83.94 103.201 83.94 103.201 .086 .06 .086"/>
  </defs>
  <g fill="none" fill-rule="evenodd">
    <mask id="b" fill="white">
      <use xlink:href="#a"/>
    </mask>
    <polygon fill="#D8222A" points="61.672 83.94 103.201 83.94 103.201 71.952 61.672 71.952" mask="url(#b)"/>
    <path fill="#D8222A" d="M29.392,41.344 L23.812,41.344 L23.754,0.085 L0,0.085 L0,71.956 L33.138,71.956 L33.138,45.091 C33.138,43.021 31.46,41.344 29.392,41.344" mask="url(#b)"/>
    <path fill="#F5BD25" d="M49.691,43.366 L45.246,43.366 L40.221,42.256 L40.221,41.14 L49.691,41.14 L49.691,43.366 L49.691,43.366 Z M41.643,23.865 L23.792,23.875 L23.812,41.344 L29.392,41.344 C31.46,41.344 33.138,43.021 33.138,45.091 L33.138,71.956 L55.541,71.956 L55.549,37.77 C55.549,30.09 49.322,23.865 41.643,23.865 L41.643,23.865 Z"/>
  </g>
</svg>
